<svg width="512" height="512" xmlns="http://www.w3.org/2000/svg">

 <g>
  <title>background</title>
  <rect fill="none" id="canvas_background" height="402" width="582" y="-1" x="-1"/>
 </g>
 <g>
  <title>Layer 1</title>
  <path fill="#ffffff" id="svg_1" d="m256,56c110.532,0 200,89.451 200,200c0,110.532 -89.451,200 -200,200c-110.532,0 -200,-89.451 -200,-200c0,-110.532 89.451,-200 200,-200m0,-48c-136.967,0 -248,111.033 -248,248s111.033,248 248,248s248,-111.033 248,-248s-111.033,-248 -248,-248zm0,168c-44.183,0 -80,35.817 -80,80s35.817,80 80,80s80,-35.817 80,-80s-35.817,-80 -80,-80z"/>
 </g>
</svg>