<svg width="384" height="512" xmlns="http://www.w3.org/2000/svg" class="svg-inline--fa fa-lightbulb fa-w-12">

 <g>
  <title>background</title>
  <rect fill="none" id="canvas_background" height="402" width="582" y="-1" x="-1"/>
 </g>
 <g>
  <title>Layer 1</title>
  <path id="svg_1" d="m272,428l0,28c0,10.449 -6.68,19.334 -16,22.629l0,9.371c0,13.255 -10.745,24 -24,24l-80,0c-13.255,0 -24,-10.745 -24,-24l0,-9.371c-9.32,-3.295 -16,-12.18 -16,-22.629l0,-28c0,-6.627 5.373,-12 12,-12l136,0c6.627,0 12,5.373 12,12zm-144,-252c0,-35.29 28.71,-64 64,-64c8.837,0 16,-7.164 16,-16s-7.163,-16 -16,-16c-52.935,0 -96,43.065 -96,96c0,8.836 7.164,16 16,16s16,-7.164 16,-16zm64,-128c70.734,0 128,57.254 128,128c0,77.602 -37.383,60.477 -80.98,160l-94.04,0c-43.662,-99.67 -80.98,-82.131 -80.98,-160c0,-70.735 57.254,-128 128,-128m0,-48c-97.195,0 -176,78.803 -176,176c0,101.731 51.697,91.541 90.516,192.674c3.55,9.249 12.47,15.326 22.376,15.326l126.215,0c9.906,0 18.826,-6.078 22.376,-15.326c38.82,-101.133 90.517,-90.943 90.517,-192.674c0,-97.197 -78.805,-176 -176,-176z" fill="#ffffff"/>
 </g>
</svg>